<?xml version="1.0" encoding="utf-8"?>
<!-- Generator: Adobe Illustrator 15.0.0, SVG Export Plug-In . SVG Version: 6.00 Build 0)  -->
<!DOCTYPE svg PUBLIC "-//W3C//DTD SVG 1.1//EN" "http://www.w3.org/Graphics/SVG/1.1/DTD/svg11.dtd">
<svg version="1.1" id="EgytekLogo" xmlns="http://www.w3.org/2000/svg" xmlns:xlink="http://www.w3.org/1999/xlink" x="0px" y="0px"
	 width="150px" height="56.818px" viewBox="0 0 150 56.818" enable-background="new 0 0 150 56.818" xml:space="preserve">
<g>
	<polygon fill="none" points="47.184,44.842 49.389,44.842 48.29,41.84 	"/>
	<polygon fill="none" points="126.626,53.063 128.832,53.063 127.733,50.063 	"/>
	<path fill="none" d="M48.017,50.086c-0.097-0.076-0.206-0.127-0.328-0.152c-0.123-0.024-0.242-0.037-0.363-0.037h-1.958v2.125
		h1.958c0.121,0,0.24-0.013,0.363-0.036c0.123-0.025,0.231-0.075,0.328-0.154c0.098-0.076,0.178-0.186,0.24-0.326
		s0.093-0.324,0.093-0.55c0-0.225-0.031-0.408-0.093-0.547C48.195,50.272,48.114,50.165,48.017,50.086z"/>
	<polygon fill="none" points="96.091,53.063 98.298,53.063 97.198,50.063 	"/>
	<polygon fill="none" points="68.091,53.063 70.295,53.063 69.197,50.063 	"/>
	<path fill="none" d="M57.712,50.248c-0.153-0.185-0.339-0.312-0.561-0.381c-0.221-0.068-0.475-0.103-0.758-0.103
		c-0.284,0-0.538,0.034-0.759,0.103c-0.221,0.069-0.408,0.196-0.561,0.381c-0.152,0.185-0.269,0.437-0.352,0.757
		c-0.082,0.319-0.123,0.728-0.123,1.223c0,0.503,0.042,0.913,0.123,1.233c0.083,0.319,0.2,0.571,0.352,0.757
		c0.152,0.185,0.339,0.311,0.561,0.38c0.222,0.069,0.475,0.104,0.759,0.104c0.284,0,0.538-0.034,0.758-0.104
		c0.222-0.069,0.408-0.195,0.561-0.38c0.152-0.186,0.269-0.438,0.351-0.757c0.082-0.32,0.124-0.73,0.124-1.233
		c0-0.495-0.042-0.903-0.124-1.223C57.981,50.685,57.864,50.433,57.712,50.248z"/>
	<path fill="none" d="M122.543,50.086c-0.097-0.076-0.208-0.127-0.331-0.152c-0.121-0.024-0.242-0.037-0.361-0.037h-1.958v2.125
		h1.958c0.119,0,0.24-0.013,0.361-0.036c0.123-0.025,0.234-0.075,0.331-0.154c0.097-0.076,0.175-0.186,0.237-0.326
		s0.095-0.324,0.095-0.55c0-0.225-0.032-0.408-0.095-0.547C122.718,50.272,122.64,50.165,122.543,50.086z"/>
	<path fill="none" d="M67.721,41.865c-0.097-0.076-0.207-0.129-0.33-0.154c-0.122-0.023-0.242-0.035-0.362-0.035h-1.959V43.8h1.959
		c0.12,0,0.24-0.012,0.362-0.037c0.123-0.025,0.232-0.075,0.33-0.153c0.097-0.076,0.176-0.187,0.239-0.325
		c0.063-0.142,0.093-0.326,0.093-0.551c0-0.226-0.031-0.407-0.093-0.545C67.897,42.05,67.818,41.942,67.721,41.865z"/>
	<path fill="none" d="M41.929,50.285c-0.155-0.192-0.342-0.327-0.563-0.405c-0.224-0.076-0.473-0.115-0.753-0.115
		c-0.284,0-0.536,0.039-0.759,0.115c-0.222,0.078-0.409,0.213-0.56,0.405c-0.152,0.194-0.269,0.453-0.351,0.777
		c-0.083,0.325-0.124,0.739-0.124,1.24c0,0.495,0.041,0.908,0.124,1.235c0.082,0.33,0.199,0.59,0.351,0.782
		c0.151,0.194,0.338,0.329,0.56,0.405c0.223,0.078,0.475,0.116,0.759,0.116c0.28,0,0.529-0.038,0.753-0.116
		c0.221-0.076,0.408-0.211,0.563-0.405c0.154-0.192,0.273-0.452,0.355-0.782c0.083-0.327,0.124-0.74,0.124-1.235
		c0-0.501-0.041-0.915-0.124-1.24C42.202,50.738,42.083,50.479,41.929,50.285z"/>
	<path fill="none" d="M110.082,43.763c0.121-0.025,0.232-0.075,0.329-0.153c0.097-0.076,0.175-0.187,0.237-0.325
		c0.063-0.142,0.093-0.326,0.093-0.551c0-0.226-0.03-0.407-0.093-0.545c-0.063-0.139-0.141-0.246-0.237-0.323
		c-0.097-0.076-0.208-0.129-0.329-0.154c-0.123-0.023-0.244-0.035-0.362-0.035h-1.961V43.8h1.961
		C109.838,43.8,109.959,43.788,110.082,43.763z"/>
	<polygon fill="#B71818" points="38.932,47.264 38.932,40.898 37.586,40.898 35.822,46.1 34.065,40.898 32.586,40.898
		32.586,47.264 33.482,47.264 33.482,41.988 35.329,47.264 36.256,47.264 38.019,41.998 38.019,47.264 	"/>
	<path fill="#B71818" d="M41.499,42.226c0.137-0.175,0.31-0.31,0.517-0.406c0.206-0.096,0.459-0.144,0.758-0.144h1.705v-0.777
		h-1.839c-0.349,0-0.681,0.057-0.998,0.173c-0.317,0.116-0.596,0.302-0.837,0.559c-0.242,0.256-0.434,0.585-0.576,0.987
		c-0.143,0.402-0.214,0.891-0.214,1.465c0,0.567,0.071,1.052,0.214,1.454c0.142,0.402,0.333,0.731,0.576,0.989
		c0.241,0.257,0.521,0.443,0.837,0.561c0.316,0.12,0.648,0.178,0.998,0.178h1.839v-0.777h-1.711c-0.304,0-0.563-0.052-0.774-0.156
		c-0.212-0.104-0.385-0.249-0.52-0.434s-0.235-0.403-0.303-0.658c-0.068-0.253-0.108-0.528-0.124-0.827h3.341v-0.777h-3.333
		c0.019-0.285,0.064-0.55,0.134-0.789C41.259,42.604,41.363,42.398,41.499,42.226z"/>
	<path fill="#B71818" d="M47.7,40.898l-2.37,6.365h0.988l0.612-1.678h2.728l0.605,1.678h0.995l-2.369-6.365H47.7z M47.184,44.842
		l1.106-3.002l1.099,3.002H47.184z"/>
	<path fill="#B71818" d="M54.973,46.486h-2.661v0.777h2.699c0.642,0,1.127-0.152,1.453-0.459c0.327-0.305,0.489-0.766,0.489-1.383
		c0-0.619-0.163-1.079-0.489-1.382c-0.326-0.305-0.811-0.455-1.453-0.455h-0.942c-0.135,0-0.264-0.015-0.386-0.045
		c-0.122-0.031-0.231-0.083-0.328-0.158c-0.098-0.074-0.175-0.172-0.232-0.293c-0.057-0.12-0.085-0.271-0.085-0.455
		c0-0.182,0.029-0.333,0.085-0.455c0.057-0.121,0.135-0.22,0.232-0.293c0.097-0.075,0.207-0.128,0.328-0.16
		c0.122-0.033,0.25-0.05,0.386-0.05h2.586v-0.777h-2.811c-0.225,0-0.441,0.036-0.65,0.111c-0.21,0.074-0.395,0.187-0.554,0.334
		c-0.159,0.148-0.287,0.338-0.381,0.567c-0.094,0.229-0.142,0.497-0.142,0.807c0,0.309,0.048,0.57,0.142,0.785
		c0.095,0.215,0.222,0.393,0.381,0.533s0.344,0.243,0.554,0.306c0.208,0.063,0.425,0.095,0.65,0.095h1.129
		c0.333,0,0.591,0.083,0.77,0.248c0.179,0.166,0.273,0.423,0.283,0.769c0.006,0.348-0.085,0.607-0.272,0.777
		C55.566,46.401,55.306,46.486,54.973,46.486z"/>
	<path fill="#B71818" d="M58.104,40.898v4.15c0,0.806,0.207,1.398,0.62,1.781s1.024,0.575,1.832,0.575
		c0.807,0,1.419-0.192,1.835-0.575c0.416-0.383,0.624-0.976,0.624-1.781v-4.15H62.11v4.184c0,0.226-0.03,0.433-0.093,0.619
		c-0.063,0.188-0.157,0.351-0.284,0.488c-0.127,0.138-0.289,0.245-0.486,0.322s-0.427,0.117-0.691,0.117
		c-0.265,0-0.493-0.04-0.688-0.117c-0.195-0.077-0.357-0.185-0.486-0.322s-0.226-0.3-0.288-0.488
		c-0.062-0.187-0.093-0.394-0.093-0.619v-4.184H58.104z"/>
	<path fill="#B71818" d="M69.025,42.733c0-0.319-0.046-0.596-0.139-0.827c-0.092-0.23-0.219-0.422-0.38-0.57
		c-0.163-0.148-0.354-0.258-0.576-0.331c-0.223-0.07-0.464-0.106-0.73-0.106h-3.027v6.365h0.897v-2.686h1.391
		c0.389,0,0.695,0.091,0.919,0.276c0.224,0.185,0.378,0.445,0.463,0.782c0.019,0.087,0.038,0.19,0.052,0.309
		c0.015,0.119,0.029,0.249,0.041,0.389c0.013,0.142,0.028,0.289,0.045,0.448c0.017,0.156,0.043,0.317,0.078,0.481h0.957
		c-0.065-0.412-0.115-0.782-0.149-1.107s-0.08-0.573-0.135-0.745c-0.1-0.263-0.224-0.476-0.374-0.636
		c-0.148-0.159-0.333-0.295-0.553-0.405c0.383-0.104,0.683-0.3,0.898-0.586C68.918,43.498,69.025,43.146,69.025,42.733z
		 M67.96,43.284c-0.063,0.139-0.142,0.249-0.239,0.325c-0.097,0.078-0.207,0.128-0.33,0.153C67.27,43.788,67.149,43.8,67.03,43.8
		h-1.959v-2.124h1.959c0.12,0,0.24,0.012,0.362,0.035c0.123,0.025,0.232,0.078,0.33,0.154c0.097,0.077,0.176,0.185,0.239,0.323
		c0.063,0.138,0.093,0.319,0.093,0.545C68.053,42.958,68.022,43.143,67.96,43.284z"/>
	<rect x="70.176" y="40.898" fill="#B71818" width="0.897" height="6.365"/>
	<polygon fill="#B71818" points="76.26,45.934 73.315,40.898 72.231,40.898 72.231,47.264 73.129,47.264 73.129,42.255
		76.171,47.264 77.165,47.264 77.165,40.898 76.26,40.898 	"/>
	<path fill="#B71818" d="M80.604,47.264h2.549v-3.63h-2.66v0.777h1.757v2.075h-1.295c-0.335,0-0.611-0.061-0.833-0.186
		c-0.222-0.123-0.399-0.293-0.53-0.508c-0.133-0.215-0.226-0.468-0.28-0.761c-0.057-0.291-0.083-0.609-0.083-0.95
		c0-0.344,0.026-0.66,0.083-0.952c0.055-0.292,0.149-0.546,0.284-0.761c0.133-0.215,0.313-0.385,0.532-0.508
		c0.224-0.125,0.5-0.186,0.835-0.186h2.19v-0.777h-2.549c-0.313,0-0.591,0.048-0.831,0.145c-0.238,0.096-0.444,0.227-0.619,0.393
		c-0.176,0.165-0.321,0.355-0.438,0.571c-0.117,0.215-0.21,0.438-0.276,0.673c-0.069,0.234-0.115,0.473-0.146,0.715
		s-0.047,0.472-0.047,0.688c0,0.214,0.017,0.441,0.047,0.682c0.03,0.239,0.076,0.479,0.146,0.715
		c0.066,0.237,0.159,0.463,0.276,0.678c0.116,0.215,0.262,0.405,0.438,0.571c0.175,0.165,0.381,0.296,0.619,0.392
		C80.014,47.217,80.291,47.264,80.604,47.264z"/>
	<rect x="87.458" y="40.898" fill="#B71818" width="0.897" height="6.365"/>
	<polygon fill="#B71818" points="94.448,40.898 93.542,40.898 93.542,45.934 90.598,40.898 89.516,40.898 89.516,47.264
		90.41,47.264 90.41,42.255 93.453,47.264 94.448,47.264 	"/>
	<path fill="#B71818" d="M98.425,43.585h-0.942c-0.135,0-0.264-0.015-0.385-0.045c-0.123-0.031-0.232-0.083-0.329-0.158
		c-0.099-0.074-0.173-0.172-0.231-0.293c-0.059-0.12-0.087-0.271-0.087-0.455c0-0.182,0.028-0.333,0.087-0.455
		c0.059-0.121,0.133-0.22,0.231-0.293c0.097-0.075,0.206-0.128,0.329-0.16c0.121-0.033,0.25-0.05,0.385-0.05h2.586v-0.777h-2.81
		c-0.226,0-0.441,0.036-0.651,0.111c-0.208,0.074-0.394,0.187-0.553,0.334c-0.159,0.148-0.286,0.338-0.381,0.567
		c-0.095,0.229-0.142,0.497-0.142,0.807c0,0.309,0.047,0.57,0.142,0.785s0.222,0.393,0.381,0.533s0.345,0.243,0.553,0.306
		c0.21,0.063,0.426,0.095,0.651,0.095h1.127c0.335,0,0.591,0.083,0.771,0.248c0.18,0.166,0.274,0.423,0.284,0.769
		c0.007,0.348-0.086,0.607-0.271,0.777c-0.188,0.171-0.448,0.256-0.783,0.256h-2.659v0.777h2.698c0.643,0,1.127-0.152,1.453-0.459
		c0.327-0.305,0.49-0.766,0.49-1.383c0-0.619-0.163-1.079-0.49-1.382C99.552,43.735,99.067,43.585,98.425,43.585z"/>
	<polygon fill="#B71818" points="104.061,47.264 104.061,41.676 105.854,41.676 105.854,40.898 101.368,40.898 101.368,41.676
		103.155,41.676 103.155,47.264 	"/>
	<path fill="#B71818" d="M107.759,44.578h1.392c0.39,0,0.696,0.091,0.92,0.276c0.224,0.185,0.379,0.445,0.464,0.782
		c0.02,0.087,0.036,0.19,0.052,0.309c0.015,0.119,0.028,0.249,0.041,0.389c0.012,0.142,0.028,0.289,0.046,0.448
		c0.017,0.156,0.043,0.317,0.077,0.481h0.958c-0.065-0.412-0.115-0.782-0.149-1.107c-0.036-0.325-0.081-0.573-0.136-0.745
		c-0.099-0.263-0.224-0.476-0.375-0.636c-0.148-0.159-0.332-0.295-0.552-0.405c0.383-0.104,0.684-0.3,0.896-0.586
		c0.214-0.286,0.323-0.638,0.323-1.051c0-0.319-0.047-0.596-0.14-0.827c-0.093-0.23-0.22-0.422-0.381-0.57
		c-0.163-0.148-0.353-0.258-0.577-0.331c-0.22-0.07-0.463-0.106-0.728-0.106h-3.026v6.365h0.895V44.578z M107.759,41.676h1.961
		c0.118,0,0.239,0.012,0.362,0.035c0.121,0.025,0.232,0.078,0.329,0.154c0.097,0.077,0.175,0.185,0.237,0.323
		c0.063,0.138,0.093,0.319,0.093,0.545c0,0.225-0.03,0.409-0.093,0.551c-0.063,0.139-0.141,0.249-0.237,0.325
		c-0.097,0.078-0.208,0.128-0.329,0.153c-0.123,0.025-0.244,0.037-0.362,0.037h-1.961V41.676z"/>
	<path fill="#B71818" d="M115.317,47.405c0.807,0,1.42-0.192,1.835-0.575s0.625-0.976,0.625-1.781v-4.15h-0.905v4.184
		c0,0.226-0.03,0.433-0.095,0.619c-0.063,0.188-0.155,0.351-0.282,0.488s-0.288,0.245-0.486,0.322
		c-0.197,0.077-0.428,0.117-0.691,0.117c-0.265,0-0.494-0.04-0.688-0.117c-0.196-0.077-0.357-0.185-0.486-0.322
		s-0.224-0.3-0.286-0.488c-0.064-0.187-0.095-0.394-0.095-0.619v-4.184h-0.897v4.15c0,0.806,0.208,1.398,0.621,1.781
		S114.511,47.405,115.317,47.405z"/>
	<polygon fill="#B71818" points="125.281,47.264 125.281,40.898 123.937,40.898 122.172,46.1 120.415,40.898 118.935,40.898
		118.935,47.264 119.832,47.264 119.832,41.988 121.678,47.264 122.605,47.264 124.369,41.998 124.369,47.264 	"/>
	<path fill="#B71818" d="M127.991,41.071c-0.316,0.116-0.597,0.302-0.837,0.559c-0.242,0.256-0.436,0.585-0.576,0.987
		c-0.142,0.402-0.212,0.891-0.212,1.465c0,0.567,0.07,1.052,0.212,1.454c0.141,0.402,0.334,0.731,0.576,0.989
		c0.24,0.257,0.521,0.443,0.837,0.561c0.316,0.12,0.649,0.178,0.998,0.178h1.84v-0.777h-1.713c-0.304,0-0.563-0.052-0.774-0.156
		c-0.211-0.104-0.385-0.249-0.52-0.434c-0.134-0.185-0.234-0.403-0.303-0.658c-0.066-0.253-0.106-0.528-0.123-0.827h3.342v-0.777
		h-3.334c0.021-0.285,0.064-0.55,0.134-0.789c0.07-0.24,0.173-0.446,0.311-0.619c0.137-0.175,0.308-0.31,0.516-0.406
		c0.208-0.096,0.46-0.144,0.759-0.144h1.706v-0.777h-1.84C128.641,40.898,128.308,40.955,127.991,41.071z"/>
	<polygon fill="#B71818" points="135.933,45.934 132.988,40.898 131.903,40.898 131.903,47.264 132.801,47.264 132.801,42.255
		135.844,47.264 136.836,47.264 136.836,40.898 135.933,40.898 	"/>
	<polygon fill="#B71818" points="137.847,41.676 139.633,41.676 139.633,47.264 140.536,47.264 140.536,41.676 142.331,41.676
		142.331,40.898 137.847,40.898 	"/>
	<path fill="#B71818" d="M143.789,44.036c0.159,0.141,0.345,0.243,0.553,0.306c0.21,0.063,0.428,0.095,0.651,0.095h1.127
		c0.335,0,0.591,0.083,0.771,0.248c0.18,0.166,0.274,0.423,0.284,0.769c0.004,0.348-0.087,0.607-0.272,0.777
		c-0.188,0.171-0.447,0.256-0.782,0.256h-2.662v0.777h2.7c0.644,0,1.128-0.152,1.454-0.459c0.327-0.305,0.488-0.766,0.488-1.383
		c0-0.619-0.161-1.079-0.488-1.382c-0.326-0.305-0.811-0.455-1.454-0.455h-0.943c-0.133,0-0.262-0.015-0.383-0.045
		c-0.123-0.031-0.232-0.083-0.331-0.158c-0.097-0.074-0.174-0.172-0.229-0.293c-0.059-0.12-0.087-0.271-0.087-0.455
		c0-0.182,0.028-0.333,0.087-0.455c0.056-0.121,0.133-0.22,0.229-0.293c0.099-0.075,0.208-0.128,0.331-0.16
		c0.121-0.033,0.25-0.05,0.383-0.05h2.587v-0.777h-2.809c-0.224,0-0.441,0.036-0.651,0.111c-0.208,0.074-0.394,0.187-0.553,0.334
		c-0.161,0.148-0.286,0.338-0.381,0.567c-0.095,0.229-0.142,0.497-0.142,0.807c0,0.309,0.047,0.57,0.142,0.785
		S143.628,43.896,143.789,44.036z"/>
	<path fill="#B71818" d="M33.773,49.314c-0.293,0.128-0.529,0.296-0.706,0.5c-0.176,0.204-0.302,0.431-0.374,0.682
		c-0.072,0.251-0.108,0.5-0.108,0.748v4.242h0.896v-2.853h3.259v-0.777h-3.259v-0.546c0-0.242,0.038-0.453,0.112-0.633
		c0.076-0.179,0.174-0.325,0.296-0.441c0.122-0.117,0.26-0.202,0.415-0.257c0.155-0.055,0.311-0.083,0.471-0.083h2.055v-0.777
		h-1.943C34.439,49.119,34.068,49.185,33.773,49.314z"/>
	<path fill="#B71818" d="M42.639,49.785c-0.239-0.273-0.529-0.475-0.871-0.607c-0.341-0.134-0.727-0.199-1.155-0.199
		c-0.428,0-0.813,0.065-1.154,0.199c-0.342,0.133-0.632,0.334-0.871,0.607c-0.24,0.273-0.424,0.618-0.553,1.038
		c-0.13,0.419-0.195,0.912-0.195,1.479c0,0.569,0.065,1.062,0.195,1.48c0.129,0.419,0.313,0.766,0.553,1.038
		c0.239,0.272,0.529,0.476,0.871,0.606c0.341,0.133,0.726,0.199,1.154,0.199c0.429,0,0.814-0.066,1.155-0.199
		c0.342-0.131,0.632-0.334,0.871-0.606s0.423-0.619,0.554-1.038c0.129-0.419,0.193-0.911,0.193-1.48
		c0-0.567-0.064-1.061-0.193-1.479C43.063,50.403,42.878,50.059,42.639,49.785z M42.284,53.538c-0.082,0.33-0.201,0.59-0.355,0.782
		c-0.155,0.194-0.342,0.329-0.563,0.405c-0.224,0.078-0.473,0.116-0.753,0.116c-0.284,0-0.536-0.038-0.759-0.116
		c-0.222-0.076-0.409-0.211-0.56-0.405c-0.152-0.192-0.269-0.452-0.351-0.782c-0.083-0.327-0.124-0.74-0.124-1.235
		c0-0.501,0.041-0.915,0.124-1.24c0.082-0.324,0.199-0.583,0.351-0.777c0.151-0.192,0.338-0.327,0.56-0.405
		c0.223-0.076,0.475-0.115,0.759-0.115c0.28,0,0.529,0.039,0.753,0.115c0.221,0.078,0.408,0.213,0.563,0.405
		c0.154,0.194,0.273,0.453,0.355,0.777c0.083,0.325,0.124,0.739,0.124,1.24C42.407,52.798,42.366,53.211,42.284,53.538z"/>
	<path fill="#B71818" d="M49.323,50.955c0-0.319-0.046-0.595-0.139-0.826c-0.093-0.232-0.22-0.422-0.382-0.57
		c-0.162-0.15-0.354-0.26-0.576-0.332c-0.222-0.071-0.464-0.107-0.729-0.107H44.47v6.367h0.897v-2.688h1.39
		c0.389,0,0.695,0.093,0.919,0.277c0.225,0.186,0.379,0.446,0.464,0.781c0.02,0.089,0.038,0.193,0.053,0.311
		c0.015,0.118,0.028,0.248,0.041,0.39c0.012,0.141,0.026,0.289,0.045,0.446c0.017,0.156,0.043,0.318,0.078,0.483h0.957
		c-0.064-0.413-0.114-0.782-0.15-1.108c-0.034-0.324-0.079-0.572-0.133-0.744c-0.101-0.265-0.225-0.476-0.375-0.636
		c-0.149-0.159-0.333-0.296-0.553-0.405c0.384-0.105,0.683-0.302,0.897-0.588C49.215,51.719,49.323,51.368,49.323,50.955z
		 M48.257,51.505c-0.062,0.141-0.143,0.25-0.24,0.326c-0.097,0.079-0.206,0.129-0.328,0.154c-0.123,0.023-0.242,0.036-0.363,0.036
		h-1.958v-2.125h1.958c0.121,0,0.24,0.013,0.363,0.037c0.123,0.025,0.231,0.076,0.328,0.152c0.098,0.079,0.178,0.187,0.24,0.322
		c0.062,0.139,0.093,0.322,0.093,0.547C48.35,51.181,48.319,51.364,48.257,51.505z"/>
	<path fill="#B71818" d="M59.166,52.228c0-0.566-0.065-1.056-0.194-1.467s-0.314-0.748-0.553-1.013
		c-0.239-0.264-0.53-0.459-0.872-0.583c-0.341-0.125-0.725-0.187-1.154-0.187s-0.813,0.062-1.156,0.187
		c-0.341,0.124-0.631,0.319-0.87,0.583c-0.239,0.265-0.424,0.602-0.554,1.013c-0.129,0.411-0.194,0.9-0.194,1.467
		c0,0.574,0.065,1.066,0.194,1.478c0.13,0.411,0.314,0.748,0.554,1.012c0.239,0.266,0.529,0.459,0.87,0.584
		c0.342,0.123,0.727,0.186,1.156,0.186h2.915v-0.785h-0.875C58.922,54.172,59.166,53.348,59.166,52.228z M58.063,53.461
		c-0.083,0.319-0.199,0.571-0.351,0.757c-0.153,0.185-0.339,0.311-0.561,0.38c-0.221,0.069-0.475,0.104-0.758,0.104
		c-0.284,0-0.538-0.034-0.759-0.104c-0.221-0.069-0.408-0.195-0.561-0.38c-0.152-0.186-0.269-0.438-0.352-0.757
		c-0.082-0.32-0.123-0.73-0.123-1.233c0-0.495,0.042-0.903,0.123-1.223c0.083-0.32,0.2-0.572,0.352-0.757
		c0.152-0.185,0.339-0.312,0.561-0.381c0.222-0.068,0.475-0.103,0.759-0.103c0.284,0,0.538,0.034,0.758,0.103
		c0.222,0.069,0.408,0.196,0.561,0.381c0.152,0.185,0.269,0.437,0.351,0.757c0.082,0.319,0.124,0.728,0.124,1.223
		C58.187,52.73,58.146,53.141,58.063,53.461z"/>
	<path fill="#B71818" d="M64.398,53.305c0,0.225-0.031,0.433-0.094,0.619c-0.062,0.188-0.156,0.35-0.284,0.487
		c-0.128,0.139-0.29,0.246-0.486,0.323c-0.197,0.076-0.427,0.115-0.692,0.115c-0.264,0-0.493-0.039-0.688-0.115
		c-0.194-0.077-0.357-0.185-0.486-0.323c-0.129-0.138-0.225-0.299-0.288-0.487c-0.062-0.187-0.093-0.395-0.093-0.619v-4.186h-0.897
		v4.152c0,0.803,0.206,1.398,0.62,1.781c0.413,0.383,1.024,0.574,1.831,0.574c0.808,0,1.419-0.191,1.835-0.574
		c0.416-0.383,0.624-0.979,0.624-1.781v-4.152h-0.904V53.305z"/>
	<path fill="#B71818" d="M68.606,49.119l-2.37,6.367h0.987l0.613-1.678h2.728l0.606,1.678h0.994l-2.369-6.367H68.606z
		 M68.091,53.063l1.106-3.001l1.098,3.001H68.091z"/>
	<path fill="#B71818" d="M74.799,54.663c-0.142-0.03-0.273-0.087-0.392-0.173c-0.12-0.085-0.219-0.206-0.294-0.36
		c-0.079-0.153-0.117-0.354-0.117-0.603v-4.408h-0.897v4.177c0,0.187,0.011,0.368,0.034,0.545c0.022,0.177,0.063,0.343,0.124,0.501
		c0.059,0.156,0.14,0.303,0.239,0.438c0.101,0.136,0.227,0.254,0.382,0.359c0.173,0.123,0.337,0.209,0.493,0.266
		c0.154,0.055,0.312,0.082,0.471,0.082h1.802v-0.777h-1.429C75.08,54.709,74.941,54.694,74.799,54.663z"/>
	<rect x="77.651" y="49.119" fill="#B71818" width="0.897" height="6.367"/>
	<polygon fill="#B71818" points="79.558,49.896 81.344,49.896 81.344,55.486 82.25,55.486 82.25,49.896 84.042,49.896
		84.042,49.119 79.558,49.119 	"/>
	<polygon fill="#B71818" points="87.571,52.063 85.873,49.119 84.829,49.119 87.1,52.923 87.1,55.486 88.003,55.486 88.003,52.923
		90.313,49.119 89.283,49.119 	"/>
	<path fill="#B71818" d="M96.607,49.119l-2.369,6.367h0.986l0.612-1.678h2.729l0.605,1.678h0.994l-2.37-6.367H96.607z
		 M96.091,53.063l1.107-3.001l1.1,3.001H96.091z"/>
	<path fill="#B71818" d="M103.92,51.807h-0.944c-0.133,0-0.262-0.016-0.385-0.046c-0.121-0.029-0.232-0.082-0.329-0.156
		c-0.097-0.075-0.173-0.173-0.231-0.294c-0.057-0.121-0.085-0.272-0.085-0.454c0-0.183,0.028-0.334,0.085-0.456
		c0.059-0.12,0.135-0.219,0.231-0.293s0.208-0.128,0.329-0.161c0.123-0.033,0.252-0.05,0.385-0.05h2.588v-0.777h-2.812
		c-0.224,0-0.441,0.037-0.649,0.111c-0.21,0.074-0.396,0.187-0.555,0.336c-0.159,0.148-0.286,0.337-0.381,0.565
		c-0.095,0.229-0.142,0.499-0.142,0.806c0,0.31,0.047,0.571,0.142,0.786s0.222,0.393,0.381,0.533s0.345,0.243,0.555,0.307
		c0.208,0.063,0.426,0.096,0.649,0.096h1.129c0.333,0,0.591,0.083,0.771,0.247c0.18,0.165,0.274,0.423,0.282,0.77
		c0.007,0.348-0.084,0.605-0.271,0.777c-0.186,0.171-0.448,0.256-0.781,0.256h-2.661v0.777h2.7c0.641,0,1.125-0.152,1.451-0.459
		c0.327-0.307,0.49-0.769,0.49-1.385c0-0.617-0.163-1.077-0.49-1.382C105.045,51.958,104.561,51.807,103.92,51.807z"/>
	<path fill="#B71818" d="M109.83,51.807h-0.941c-0.134,0-0.263-0.016-0.386-0.046c-0.121-0.029-0.231-0.082-0.328-0.156
		c-0.097-0.075-0.174-0.173-0.23-0.294c-0.059-0.121-0.086-0.272-0.086-0.454c0-0.183,0.027-0.334,0.086-0.456
		c0.057-0.12,0.134-0.219,0.23-0.293s0.207-0.128,0.328-0.161c0.123-0.033,0.252-0.05,0.386-0.05h2.587v-0.777h-2.811
		c-0.225,0-0.44,0.037-0.649,0.111c-0.21,0.074-0.396,0.187-0.555,0.336c-0.159,0.148-0.286,0.337-0.382,0.565
		c-0.095,0.229-0.141,0.499-0.141,0.806c0,0.31,0.046,0.571,0.141,0.786c0.096,0.215,0.223,0.393,0.382,0.533
		s0.345,0.243,0.555,0.307c0.209,0.063,0.425,0.096,0.649,0.096h1.129c0.333,0,0.591,0.083,0.771,0.247
		c0.177,0.165,0.271,0.423,0.282,0.77c0.006,0.348-0.085,0.605-0.272,0.777c-0.188,0.171-0.447,0.256-0.78,0.256h-2.662v0.777h2.698
		c0.644,0,1.129-0.152,1.454-0.459c0.326-0.307,0.49-0.769,0.49-1.385c0-0.617-0.164-1.077-0.49-1.382
		C110.959,51.958,110.474,51.807,109.83,51.807z"/>
	<path fill="#B71818" d="M116.933,53.305c0,0.225-0.032,0.433-0.095,0.619c-0.063,0.188-0.157,0.35-0.282,0.487
		c-0.129,0.139-0.291,0.246-0.488,0.323c-0.195,0.076-0.426,0.115-0.689,0.115c-0.265,0-0.494-0.039-0.688-0.115
		c-0.196-0.077-0.357-0.185-0.486-0.323c-0.129-0.138-0.226-0.299-0.288-0.487c-0.063-0.187-0.095-0.395-0.095-0.619v-4.186h-0.896
		v4.152c0,0.803,0.205,1.398,0.621,1.781c0.413,0.383,1.022,0.574,1.831,0.574c0.807,0,1.42-0.191,1.835-0.574
		s0.623-0.979,0.623-1.781v-4.152h-0.903V53.305z"/>
	<path fill="#B71818" d="M123.846,50.955c0-0.319-0.047-0.595-0.138-0.826c-0.093-0.232-0.22-0.422-0.381-0.57
		c-0.163-0.15-0.355-0.26-0.575-0.332c-0.224-0.071-0.466-0.107-0.729-0.107h-3.027v6.367h0.897v-2.688h1.39
		c0.39,0,0.695,0.093,0.92,0.277c0.224,0.186,0.379,0.446,0.464,0.781c0.02,0.089,0.036,0.193,0.052,0.311
		c0.015,0.118,0.028,0.248,0.041,0.39c0.012,0.141,0.027,0.289,0.044,0.446c0.019,0.156,0.044,0.318,0.079,0.483h0.957
		c-0.066-0.413-0.114-0.782-0.148-1.108c-0.037-0.324-0.081-0.572-0.136-0.744c-0.099-0.265-0.226-0.476-0.375-0.636
		c-0.149-0.159-0.333-0.296-0.553-0.405c0.384-0.105,0.684-0.302,0.897-0.588S123.846,51.368,123.846,50.955z M122.78,51.505
		c-0.063,0.141-0.141,0.25-0.237,0.326c-0.097,0.079-0.208,0.129-0.331,0.154c-0.121,0.023-0.242,0.036-0.361,0.036h-1.958v-2.125
		h1.958c0.119,0,0.24,0.013,0.361,0.037c0.123,0.025,0.234,0.076,0.331,0.152c0.097,0.079,0.175,0.187,0.237,0.322
		c0.063,0.139,0.095,0.322,0.095,0.547C122.875,51.181,122.843,51.364,122.78,51.505z"/>
	<path fill="#B71818" d="M127.143,49.119l-2.37,6.367h0.986l0.613-1.678h2.729l0.606,1.678h0.992l-2.369-6.367H127.143z
		 M126.626,53.063l1.107-3.001l1.099,3.001H126.626z"/>
	<polygon fill="#B71818" points="135.664,54.154 132.718,49.119 131.636,49.119 131.636,55.486 132.53,55.486 132.53,50.476
		135.573,55.486 136.567,55.486 136.567,49.119 135.664,49.119 	"/>
	<path fill="#B71818" d="M139.178,49.264c-0.238,0.098-0.446,0.229-0.621,0.393c-0.174,0.166-0.321,0.356-0.438,0.571
		c-0.116,0.214-0.207,0.44-0.275,0.673c-0.067,0.235-0.115,0.474-0.146,0.716c-0.03,0.243-0.045,0.472-0.045,0.687
		c0,0.216,0.015,0.443,0.045,0.683c0.03,0.24,0.078,0.478,0.146,0.715c0.068,0.236,0.159,0.463,0.275,0.678
		c0.117,0.216,0.265,0.405,0.438,0.571c0.175,0.166,0.383,0.296,0.621,0.393c0.237,0.097,0.516,0.145,0.828,0.145h2.251v-0.777
		h-1.897c-0.335,0-0.613-0.063-0.835-0.186c-0.22-0.125-0.397-0.294-0.53-0.508c-0.132-0.215-0.227-0.47-0.28-0.762
		c-0.055-0.292-0.083-0.609-0.083-0.951s0.028-0.659,0.083-0.95c0.054-0.293,0.148-0.546,0.284-0.761
		c0.135-0.215,0.313-0.385,0.534-0.51c0.222-0.123,0.5-0.186,0.833-0.186h1.892v-0.777h-2.251
		C139.693,49.119,139.415,49.168,139.178,49.264z"/>
	<path fill="#B71818" d="M144.951,49.293c-0.317,0.115-0.598,0.303-0.837,0.559c-0.242,0.256-0.434,0.585-0.577,0.988
		c-0.142,0.402-0.212,0.891-0.212,1.463c0,0.569,0.07,1.053,0.212,1.456c0.144,0.402,0.335,0.731,0.577,0.987
		c0.239,0.257,0.52,0.444,0.837,0.563c0.316,0.118,0.648,0.178,0.998,0.178h1.839v-0.777h-1.712c-0.305,0-0.563-0.052-0.774-0.156
		c-0.212-0.105-0.386-0.25-0.519-0.435c-0.135-0.186-0.235-0.404-0.303-0.657c-0.068-0.254-0.108-0.529-0.123-0.827h3.34v-0.777
		h-3.333c0.02-0.286,0.064-0.55,0.135-0.789c0.068-0.24,0.174-0.446,0.311-0.621c0.137-0.173,0.309-0.308,0.515-0.404
		c0.207-0.097,0.459-0.146,0.76-0.146h1.704v-0.777h-1.839C145.6,49.119,145.268,49.178,144.951,49.293z"/>
	<rect x="18.086" y="40.52" fill="#B71818" width="3.212" height="15.186"/>
	<rect x="22.514" y="40.52" fill="#B71818" width="2.991" height="15.186"/>
	<rect x="26.727" y="40.52" fill="#B71818" width="1.906" height="15.186"/>
	<rect x="2.569" y="40.52" fill="#B71818" width="14.301" height="15.186"/>
	<path fill="#B71818" d="M42.217,37.4c2.074,0,3.723-0.094,4.939-0.279V19.514H35.646v4.593h5.161v7.602
		c-1.714,0-3.198,0.231-4.377-0.827c-0.994-0.891-2.357-2.931-2.836-4.938c-0.484-2.007-0.721-4.315-0.721-6.929
		c0-4.215,0.702-6.672,2.092-8.806c1.395-2.138,4.193-3.046,6.388-3.046c2.563,0,4.631,0.912,5.805,1.963V2.839
		c-1.749-0.548-3.085-0.9-4.007-1.062c-0.927-0.16-1.907-0.238-2.944-0.238c-4.56,0-8.262,1.616-11.099,4.852
		c-2.833,3.232-4.254,7.686-4.254,13.36c0,3.204,0.489,6.009,1.463,8.401c0.974,2.397,2.269,4.293,3.875,5.687
		c1.612,1.393,3.491,2.372,5.645,2.932C37.378,37.191,39.506,37.4,42.217,37.4z"/>
	<polygon fill="#B71818" points="56.501,37.121 64.863,37.121 64.863,20.27 72.081,1.819 63.684,1.819 60.751,13.689 57.908,1.819
		49.399,1.819 56.501,20.27 	"/>
	<polygon fill="#B71818" points="79.681,37.121 88.035,37.121 88.035,7.958 93.892,7.958 93.892,1.819 73.788,1.819 73.788,7.958
		79.681,7.958 	"/>
	<polygon fill="#B71818" points="114.227,30.398 105.212,30.398 105.212,22.694 114.227,22.694 114.227,16.657 105.212,16.657
		105.212,7.958 114.227,7.958 114.227,1.819 96.855,1.819 96.855,37.121 114.227,37.121 	"/>
	<polygon fill="#B71818" points="127.562,26.976 122.083,19.888 127.562,12.495 127.562,1.906 118.438,1.906 118.438,37.063
		127.562,37.063 	"/>
	<polygon fill="#B71818" points="134.37,19.871 147.311,1.915 136.902,1.915 123.666,19.871 136.902,37.037 147.345,37.037 	"/>
	<path fill="#B71818" d="M26.795,37.121l-3.327-6.72l-12.316-0.028l-0.095-7.566h11.025l0.037-6.123l-11.036-0.009V8.073h12.347
		l3.149-6.226H2.448c0,0-1.448,3.857-1.448,16.342c0,12.2,1.58,18.932,1.58,18.932H26.795z"/>
</g>
</svg>
